<svg width="20" height="19" xmlns="http://www.w3.org/2000/svg">

 <g>
  <title>Layer 1</title>
  <path transform="rotate(-180 10 9.25212)" id="svg_1" fill="#F53838" d="m18.75,8.00291l-14.825,0l4.5375,-5.45c0.21217,-0.25527 0.31425,-0.58437 0.28378,-0.91491c-0.03048,-0.33053 -0.19101,-0.63542 -0.44628,-0.84759c-0.25527,-0.21217 -0.58437,-0.31425 -0.9149,-0.28378c-0.33054,0.03048 -0.63543,0.19101 -0.8476,0.44628l-6.25,7.5c-0.04205,0.05965 -0.07965,0.12232 -0.1125,0.1875c0,0.0625 0,0.1 -0.0875,0.1625c-0.05666,0.14332 -0.08632,0.29589 -0.0875,0.45c0.00118,0.15411 0.03084,0.30667 0.0875,0.45c0,0.0625 0,0.1 0.0875,0.1625c0.03285,0.06517 0.07045,0.12784 0.1125,0.18749l6.25,7.5c0.11753,0.1411 0.2647,0.2546 0.43106,0.3324c0.16635,0.0777 0.3478,0.1179 0.53144,0.1176c0.29207,0.0006 0.57511,-0.1011 0.8,-0.2875c0.12657,-0.1049 0.2312,-0.2338 0.30789,-0.3792c0.07669,-0.1455 0.12394,-0.3046 0.13903,-0.4683c0.0151,-0.1637 -0.00226,-0.3288 -0.05106,-0.4858c-0.04881,-0.157 -0.12811,-0.3029 -0.23336,-0.4292l-4.5375,-5.45l14.825,0c0.3315,0 0.6495,-0.1317 0.8839,-0.3661c0.2344,-0.23443 0.3661,-0.55237 0.3661,-0.88389c0,-0.33152 -0.1317,-0.64946 -0.3661,-0.88389c-0.2344,-0.23442 -0.5524,-0.36611 -0.8839,-0.36611z"/>
 </g>
</svg>